# xmcd
#
# Track frame offsets:
# 150
# 15696
# 29247
# 42595
# 54701
# 68336
# 83756
# 99363
# 115328
# 128803
# 146992
# 163459
# 177889
# 195236
# 211394
# 228117
# 241283
#
# Disc length: 3451 seconds
#
#
# Revision: 0
# Processed by: cddbd v1.5.2PL0 Copyright (c) Steve Scherf et al.
# Submitted via: FreeRIP 2.951 
#
DISCID=ee0d7911
DTITLE=Fernado e Sorocaba - Vendaval
DYEAR=2009
DGENRE=Country
TTITLE0=Paga pau
TTITLE1=Da cor do pecado
TTITLE2=Força de um furacão
TTITLE3=chevetão
TTITLE4=Vitimas do amor
TTITLE5=Vendaval
TTITLE6=Que raiva q da
TTITLE7=Um quadro
TTITLE8=Estrela solitaria
TTITLE9=Consequencias de te amar
TTITLE10=Maquina do tempo
TTITLE11=O mundo avisou
TTITLE12=Brilho no olhar
TTITLE13=Vc e mais
TTITLE14=100% vc
TTITLE15=Livre pro amor
TTITLE16=Bala  de prata
EXTD=
EXTT0=
EXTT1=
EXTT2=
EXTT3=
EXTT4=
EXTT5=
EXTT6=
EXTT7=
EXTT8=
EXTT9=
EXTT10=
EXTT11=
EXTT12=
EXTT13=
EXTT14=
EXTT15=
EXTT16=
PLAYORDER=
